<?xml version="1.0" encoding="UTF-8" standalone="no"?>
<!-- Created with Inkscape (http://www.inkscape.org/) -->

<svg
   xmlns:dc="http://purl.org/dc/elements/1.1/"
   xmlns:cc="http://creativecommons.org/ns#"
   xmlns:rdf="http://www.w3.org/1999/02/22-rdf-syntax-ns#"
   xmlns:svg="http://www.w3.org/2000/svg"
   xmlns="http://www.w3.org/2000/svg"
   xmlns:sodipodi="http://sodipodi.sourceforge.net/DTD/sodipodi-0.dtd"
   xmlns:inkscape="http://www.inkscape.org/namespaces/inkscape"
   width="800mm"
   height="600mm"
   viewBox="0 0 800 600"
   version="1.1"
   id="svg8"
   inkscape:version="0.92.3 (2405546, 2018-03-11)"
   sodipodi:docname="UWTacomaBG1.svg">
  <defs
     id="defs2" />
  <sodipodi:namedview
     id="base"
     pagecolor="#ffffff"
     bordercolor="#666666"
     borderopacity="1.0"
     inkscape:pageopacity="0.0"
     inkscape:pageshadow="2"
     inkscape:zoom="0.7"
     inkscape:cx="840.3507"
     inkscape:cy="1091.6113"
     inkscape:document-units="mm"
     inkscape:current-layer="layer1"
     showgrid="false"
     inkscape:window-width="3840"
     inkscape:window-height="2004"
     inkscape:window-x="-16"
     inkscape:window-y="-16"
     inkscape:window-maximized="1" />
  <metadata
     id="metadata5">
    <rdf:RDF>
      <cc:Work
         rdf:about="">
        <dc:format>image/svg+xml</dc:format>
        <dc:type
           rdf:resource="http://purl.org/dc/dcmitype/StillImage" />
        <dc:title></dc:title>
      </cc:Work>
    </rdf:RDF>
  </metadata>
  <g
     inkscape:label="Layer 1"
     inkscape:groupmode="layer"
     id="layer1"
     transform="translate(0,303)">
    <flowRoot
       xml:space="preserve"
       id="flowRoot4532"
       style="font-style:normal;font-variant:normal;font-weight:normal;font-stretch:normal;font-size:53.33333206px;line-height:1.25;font-family:Quattrocento;-inkscape-font-specification:Quattrocento;letter-spacing:0px;word-spacing:0px;fill:#000000;fill-opacity:1;stroke:none"
       transform="matrix(0.26458333,0,0,0.26458333,0,-303)"><flowRegion
         id="flowRegion4534"><rect
           id="rect4536"
           width="515.71429"
           height="130.71428"
           x="108.57144"
           y="2148.4309" /></flowRegion><flowPara
         id="flowPara4538"
         style="font-weight:bold;font-size:82.66667175px" /></flowRoot>    <path
       style="fill:none;stroke:#342c5c;stroke-width:2.5;stroke-linecap:butt;stroke-linejoin:miter;stroke-opacity:1;stroke-miterlimit:4;stroke-dasharray:none"
       d="M 176.39789,289.78371 H 791.51871 V -294.6011 H 8.41899 v 584.2512 h 20.579753"
       id="path4578"
       inkscape:connector-curvature="0" />
    <g
       aria-label="UW Tacoma"
       style="font-style:normal;font-variant:normal;font-weight:normal;font-stretch:normal;font-size:14.11111069px;line-height:1.25;font-family:Quattrocento;-inkscape-font-specification:Quattrocento;letter-spacing:0px;word-spacing:0px;fill:#000000;fill-opacity:1;stroke:none;stroke-width:0.26458332"
       id="text4582">
      <path
         d="m 50.814514,277.69179 -0.0762,0.4572 -0.1016,0.1016 q -0.4064,0 -0.7874,0.0508 -0.3556,0.0254 -0.5842,0.2032 -0.2032,0.1778 -0.381,0.4572 -0.1778,0.2794 -0.2286,0.9906 -0.0254,0.3048 -0.0508,0.6096 0,0.3048 -0.0254,0.7366 0,0.4318 0,1.0414 0,0.6096 0,1.4986 v 4.8768 q 0,1.2446 -0.381,2.3368 -0.3556,1.0668 -1.1176,1.8796 -0.762,0.7874 -1.9304,1.2446 -1.143,0.4572 -2.6924,0.4572 -1.778,0 -3.0226,-0.4572 -1.2192,-0.4572 -1.9812,-1.2446 -0.762,-0.8128 -1.1176,-1.8796 -0.3302,-1.0922 -0.3302,-2.3368 v -4.8768 q 0,-0.889 0,-1.4986 0,-0.6096 0,-1.0414 0,-0.4318 -0.0254,-0.7366 0,-0.3048 -0.0254,-0.6096 -0.0508,-0.6858 -0.254,-0.9652 -0.1778,-0.3048 -0.381,-0.4826 -0.2286,-0.1778 -0.5842,-0.2032 -0.3556,-0.0508 -0.762,-0.0508 l -0.127,-0.1016 -0.0762,-0.4572 0.0508,-0.1016 q 0.1778,0 0.5842,0.0254 0.4064,0.0254 0.8382,0.0508 0.4318,0.0254 0.8382,0.0508 0.4064,0.0254 0.5842,0.0254 h 0.4826 q 0.1778,0 0.5842,-0.0254 0.4064,-0.0254 0.8382,-0.0508 0.4318,-0.0254 0.8382,-0.0508 0.4064,-0.0254 0.5842,-0.0254 l 0.0508,0.1016 -0.0762,0.4572 -0.1016,0.1016 q -0.4064,0 -0.7874,0.0508 -0.3556,0.0254 -0.5842,0.2032 -0.2032,0.1778 -0.381,0.4572 -0.1778,0.2794 -0.2286,0.9906 -0.0254,0.3556 -0.0508,0.6604 0,0.3048 -0.0254,0.7112 0,0.4064 0,0.9906 0,0.5842 0,1.4986 v 4.191 q 0,2.7432 1.2192,3.937 1.2446,1.1938 3.429,1.1938 2.1844,0 3.429,-1.1938 1.2446,-1.1938 1.2446,-3.937 v -4.191 q 0,-0.9144 0,-1.4986 0,-0.5842 -0.0254,-0.9906 0,-0.4064 -0.0254,-0.7112 0,-0.3048 -0.0254,-0.6604 -0.0508,-0.7112 -0.254,-0.9906 -0.1778,-0.2794 -0.381,-0.4572 -0.2032,-0.1778 -0.5842,-0.2032 -0.3556,-0.0508 -0.762,-0.0508 l -0.127,-0.1016 -0.0762,-0.4572 0.0508,-0.1016 q 0.1778,0 0.5334,0.0254 0.3556,0.0254 0.7366,0.0508 0.4064,0.0254 0.762,0.0508 0.3556,0.0254 0.5334,0.0254 h 0.5588 q 0.1778,0 0.5588,-0.0254 0.381,-0.0254 0.7874,-0.0508 0.4318,-0.0254 0.8128,-0.0508 0.381,-0.0254 0.5588,-0.0254 z"
         style="font-size:25.39999962px;stroke-width:0.26458332"
         id="path4584" />
      <path
         d="m 59.136983,294.63359 -4.1402,-11.5316 q -0.2794,-0.762 -0.4826,-1.27 -0.1778,-0.508 -0.3302,-0.8636 -0.127,-0.3556 -0.2286,-0.5842 -0.1016,-0.2286 -0.1778,-0.4318 -0.2794,-0.635 -0.5842,-0.9652 -0.2794,-0.3556 -0.5842,-0.508 -0.3048,-0.1778 -0.635,-0.2032 -0.3048,-0.0254 -0.635,-0.0254 l -0.127,-0.1016 -0.0508,-0.4572 0.0254,-0.1016 q 0.1778,0 0.508,0.0254 0.3556,0.0254 0.7366,0.0508 0.381,0.0254 0.7366,0.0508 0.3556,0.0254 0.5334,0.0254 h 0.8636 q 0.1778,0 0.5842,-0.0254 0.4064,-0.0254 0.8382,-0.0508 0.4572,-0.0254 0.8636,-0.0508 0.4064,-0.0254 0.5842,-0.0254 l 0.0508,0.1016 -0.0762,0.4572 -0.127,0.1016 q -0.7366,0 -1.143,0.1778 -0.4064,0.1524 -0.4064,0.889 0,0.5842 0.381,1.651 0.4064,1.0414 0.9906,2.6416 l 1.7272,4.6736 q 0.4826,1.3208 0.8382,2.3876 0.381,1.0414 0.6858,1.8034 0.2794,-0.7366 0.6604,-1.7526 0.4064,-1.016 0.9144,-2.4384 l 1.7272,-4.6736 q 0.3556,-0.9906 0.635,-1.7526 0.3048,-0.762 0.508,-1.3716 -0.127,-0.4064 -0.3048,-0.7874 -0.1524,-0.381 -0.4064,-0.6858 -0.2286,-0.3048 -0.6096,-0.508 -0.381,-0.2032 -0.9398,-0.254 l -0.127,-0.1016 -0.0508,-0.4572 0.0254,-0.1016 q 0.1778,0 0.508,0.0254 0.3556,0.0254 0.7112,0.0508 0.381,0.0254 0.7112,0.0508 0.3556,0.0254 0.5334,0.0254 h 0.838199 q 0.1778,0 0.5588,-0.0254 0.381,-0.0254 0.8128,-0.0508 0.4318,-0.0254 0.8128,-0.0508 0.381,-0.0254 0.5588,-0.0254 l 0.0508,0.1016 -0.0762,0.4572 -0.127,0.1016 q -0.2794,0 -0.6096,0.1016 -0.3048,0.0762 -0.5842,0.254 -0.254,0.1778 -0.4318,0.4318 -0.1524,0.254 -0.1524,0.5842 0,0.254 0.0508,0.3556 0.1524,0.635 0.4826,1.524 0.3556,0.889 0.7874,2.1082 l 1.7272,4.6736 q 0.4826,1.2954 0.8636,2.3876 0.381,1.0668 0.6604,1.8034 0.2794,-0.7366 0.6604,-1.7526 0.4064,-1.016 0.9144,-2.4384 l 1.7272,-4.6736 q 0.5842,-1.6002 0.9652,-2.6416 0.4064,-1.0668 0.4064,-1.651 0,-0.7366 -0.4064,-0.889 -0.4064,-0.1778 -1.143,-0.1778 l -0.1016,-0.1016 -0.0762,-0.4572 0.0508,-0.1016 q 0.1778,0 0.5588,0.0254 0.381,0.0254 0.7874,0.0508 0.4064,0.0254 0.7874,0.0508 0.381,0.0254 0.5588,0.0254 h 0.4826 q 0.1778,0 0.508,-0.0254 0.3556,-0.0254 0.7366,-0.0508 0.381,-0.0254 0.7366,-0.0508 0.3556,-0.0254 0.5334,-0.0254 l 0.0508,0.1016 -0.0762,0.4572 -0.127,0.1016 q -0.3302,0 -0.635,0.0254 -0.3048,0.0254 -0.6096,0.2032 -0.3048,0.1524 -0.6096,0.508 -0.2794,0.3302 -0.5842,0.9652 -0.0762,0.2032 -0.2286,0.508 -0.127,0.3048 -0.4572,1.143 -0.3302,0.8382 -0.9652,2.413 -0.6096,1.5494 -1.651,4.2418 -0.3556,0.889 -0.7366,1.8542 -0.3556,0.9398 -0.7112,1.8034 -0.3302,0.8382 -0.5842,1.4986 -0.254,0.6604 -0.3556,0.9398 l -1.3208,0.2794 h -0.3048 l -4.4196,-12.2428 q -0.355599,0.889 -0.914399,2.286 -0.5334,1.397 -1.3716,3.5814 -0.3302,0.889 -0.7112,1.8542 -0.381,0.9398 -0.7366,1.8034 -0.3302,0.8382 -0.5842,1.4986 -0.254,0.6604 -0.3556,0.9398 l -1.3208,0.2794 z"
         style="font-size:25.39999962px;stroke-width:0.26458332"
         id="path4586" />
      <path
         d="m 94.610066,294.50659 q -0.1778,0 -0.5588,-0.0254 -0.381,-0.0254 -0.8128,-0.0508 -0.4318,-0.0254 -0.8128,-0.0508 -0.381,-0.0254 -0.5588,-0.0254 h -1.4478 q -0.1778,0 -0.5588,0.0254 -0.381,0.0254 -0.8128,0.0508 -0.4064,0.0254 -0.7874,0.0508 -0.381,0.0254 -0.5588,0.0254 l -0.0508,-0.1016 0.0762,-0.4572 0.127,-0.1016 q 0.4064,0 0.9144,-0.0254 0.508,-0.0508 0.7112,-0.2286 0.2032,-0.1778 0.4318,-0.4572 0.2286,-0.2794 0.2794,-0.9906 0.0254,-0.1778 0.0254,-0.4064 0.0254,-0.254 0.0254,-0.6096 0.0254,-0.3556 0.0254,-0.8636 0,-0.508 0,-1.27 v -5.1562 q 0,-1.651 -0.0254,-2.921 -0.0254,-1.2954 -0.0508,-1.9558 h -0.2794 q -1.27,0 -2.0828,0.0254 -0.8128,0 -1.3208,0.0508 -0.4826,0.0254 -0.7366,0.0762 -0.2286,0.0508 -0.3302,0.127 -0.5588,0.3048 -0.6858,1.3208 l -0.1016,0.1016 h -0.5842 l 0.1778,-2.8956 0.1016,-0.2286 0.1524,-0.0762 q 0.2032,0.0762 0.889,0.1524 0.6858,0.0508 1.4986,0.0762 0.8128,0.0254 1.5494,0.0508 0.762,0 1.0922,0 h 3.2004 q 0.3302,0 1.0668,0 0.762,-0.0254 1.5748,-0.0508 0.8128,-0.0254 1.4986,-0.0762 0.6858,-0.0762 0.889,-0.1524 l 0.1524,0.0762 0.1016,0.2286 0.2032,2.8956 h -0.6096 l -0.1016,-0.1016 q -0.127,-1.016 -0.6858,-1.3208 -0.1016,-0.0762 -0.3556,-0.127 -0.2286,-0.0508 -0.7366,-0.0762 -0.4826,-0.0508 -1.2954,-0.0508 -0.8128,-0.0254 -2.0574,-0.0254 h -0.2794 q -0.0254,0.7366 -0.0508,1.9304 0,1.1938 0,2.921 v 4.6736 q 0,0.9144 0,1.4986 0,0.5588 0,0.9398 0.0254,0.381 0.0254,0.6604 0.0254,0.254 0.0508,0.5588 0.0508,0.7112 0.2794,0.9906 0.2286,0.2794 0.4318,0.4572 0.2032,0.1778 0.7112,0.2286 0.508,0.0254 0.9144,0.0254 l 0.127,0.1016 0.0762,0.4572 z"
         style="font-size:25.39999962px;stroke-width:0.26458332"
         id="path4588" />
      <path
         d="m 104.69148,294.17639 q 0.0762,-0.2794 0.1016,-0.8382 0.0508,-0.5588 0.127,-1.0414 l -0.0254,-0.0762 q -0.3302,0.4572 -0.7874,0.889 -0.4572,0.4318 -1.016,0.7874 -0.5334,0.3302 -1.1684,0.5334 -0.6096,0.2032 -1.2954,0.2032 -0.787397,0 -1.396996,-0.2794 -0.6096,-0.2794 -1.016,-0.7366 -0.4064,-0.4572 -0.6096,-1.0668 -0.2032,-0.6096 -0.2032,-1.27 0,-0.9398 0.4318,-1.6256 0.4318,-0.7112 1.143,-1.1684 0.660399,-0.4064 1.549396,-0.6604 0.9144,-0.254 1.7526,-0.3556 0.8636,-0.127 1.5494,-0.1524 0.6858,-0.0508 0.9144,-0.0508 h 0.3556 q -0.0254,-0.9398 -0.1016,-1.4732 -0.0762,-0.5588 -0.2032,-0.9144 -0.2794,-0.762 -0.9652,-1.0922 -0.6858,-0.3556 -1.651,-0.3556 -0.4064,0 -0.889,0.0762 -0.4572,0.0762 -0.889,0.2794 -0.406397,0.2032 -0.711197,0.5842 -0.304799,0.3556 -0.355599,0.9398 l -0.1016,0.0762 h -0.5588 l -0.2286,-1.8796 0.0762,-0.1524 q 0.127,-0.1524 0.5334,-0.3302 0.406399,-0.1778 0.939799,-0.3302 0.558797,-0.1778 1.219197,-0.2794 0.6858,-0.127 1.3462,-0.127 0.9144,0 1.7018,0.254 0.7874,0.2286 1.3462,0.7112 0.5842,0.4826 0.9144,1.2192 0.3302,0.7112 0.3302,1.6764 0,1.0668 -0.0254,1.905 0,0.8128 -0.0254,1.524 -0.0254,0.6858 -0.0508,1.3716 0,0.6604 0,1.4224 0.0508,0.5842 0.127,0.8636 0.0762,0.254 0.254,0.381 0.2032,0.2032 0.5842,0.254 0.4064,0.0254 0.8128,0.0254 l 0.1016,0.1016 0.0254,0.3556 -0.0254,0.1016 q -0.4572,-0.0508 -0.9906,-0.0762 -0.5334,-0.0254 -1.0414,-0.0254 -0.9652,0 -1.7526,0.0762 z m 0,-2.7432 q 0.0762,-0.127 0.1524,-0.3048 0.1016,-0.1778 0.127,-0.4318 l 0.127,-2.54 h -0.2286 q -1.016,0 -2.032,0.127 -1.016,0.1016 -1.8288,0.4318 -0.7874,0.3302 -1.295397,0.9144 -0.507999,0.5842 -0.507999,1.4986 0,0.9652 0.558799,1.5494 0.558797,0.5588 1.447797,0.5588 0.5334,0 1.0668,-0.1778 0.5334,-0.1778 0.9906,-0.4572 0.4826,-0.2794 0.8382,-0.5842 0.381,-0.3048 0.5842,-0.5842 z"
         style="font-size:25.39999962px;stroke-width:0.26458332"
         id="path4590" />
      <path
         d="m 119.90846,285.38799 -0.1016,-0.0762 q 0,-0.5842 -0.3556,-0.9398 -0.3302,-0.381 -0.8128,-0.5842 -0.4826,-0.2032 -1.0414,-0.2794 -0.5334,-0.0762 -0.9398,-0.0762 -1.1684,0 -2.032,0.4318 -0.8382,0.4064 -1.397,1.1176 -0.5588,0.6858 -0.8382,1.6002 -0.254,0.889 -0.254,1.8288 0,0.9652 0.2794,1.8542 0.3048,0.889 0.9144,1.5748 0.6096,0.6858 1.524,1.0922 0.9144,0.4064 2.1844,0.4064 0.8636,0 1.905,-0.254 1.0668,-0.2794 1.8288,-0.6858 l 0.254,0.254 -0.381,0.7112 q -0.2794,0.2032 -0.7366,0.4318 -0.4318,0.2032 -0.9906,0.4064 -0.5588,0.1778 -1.2192,0.3048 -0.635,0.127 -1.27,0.127 -1.2446,0 -2.3876,-0.4318 -1.1176,-0.4572 -1.9812,-1.2446 -0.8382,-0.8128 -1.3462,-1.9304 -0.508,-1.143 -0.508,-2.5146 0,-1.397 0.508,-2.54 0.508,-1.143 1.397,-1.9558 0.889,-0.8128 2.0574,-1.27 1.1938,-0.4572 2.54,-0.4572 1.2192,0 2.286,0.3048 1.0922,0.3048 1.651,0.6096 l 0.0762,0.2286 -0.2794,1.9558 z"
         style="font-size:25.39999962px;stroke-width:0.26458332"
         id="path4592" />
      <path
         d="m 129.20367,282.28919 q 1.4986,0 2.667,0.5334 1.1684,0.508 1.9558,1.397 0.8128,0.8636 1.2192,2.0066 0.4318,1.143 0.4318,2.3622 0,1.1684 -0.381,2.2606 -0.381,1.0922 -1.1684,1.9304 -0.7874,0.8382 -1.9558,1.3462 -1.1684,0.508 -2.7178,0.508 -1.6002,0 -2.794,-0.5334 -1.1938,-0.5334 -1.9812,-1.397 -0.762,-0.8636 -1.143,-1.9558 -0.381,-1.1176 -0.381,-2.286 0,-1.2446 0.4318,-2.3622 0.4318,-1.1176 1.2192,-1.9558 0.8128,-0.8636 1.9558,-1.3462 1.1684,-0.508 2.6416,-0.508 z m 0.0254,11.3538 q 1.0668,0 1.8796,-0.4318 0.8128,-0.4318 1.3462,-1.143 0.5334,-0.7112 0.7874,-1.6002 0.2794,-0.9144 0.2794,-1.8796 0,-0.9144 -0.3048,-1.8542 -0.2794,-0.9398 -0.8382,-1.6764 -0.5588,-0.762 -1.3716,-1.2192 -0.8128,-0.4826 -1.8796,-0.4826 -1.1176,0 -1.9304,0.4572 -0.7874,0.4318 -1.3208,1.143 -0.508,0.7112 -0.762,1.6256 -0.254,0.9144 -0.254,1.8288 0,0.9398 0.2794,1.8796 0.3048,0.9144 0.8636,1.6764 0.5588,0.7366 1.3716,1.2192 0.8128,0.4572 1.8542,0.4572 z"
         style="font-size:25.39999962px;stroke-width:0.26458332"
         id="path4594" />
      <path
         d="m 137.50908,282.87339 0.1016,-0.0762 h 0.4572 q 0.4318,0 1.0922,0 0.6604,-0.0254 1.143,-0.1016 l 0.889,-0.127 0.1524,0.2286 q -0.0508,0.1524 -0.1016,0.4064 -0.0254,0.2286 -0.0762,0.5334 -0.0254,0.2794 -0.0508,0.5588 -0.0254,0.2794 -0.0254,0.4826 l 0.0762,0.0508 q 0.2794,-0.508 0.635,-0.9652 0.381,-0.4826 0.8636,-0.8128 0.4826,-0.3556 1.0922,-0.5588 0.6096,-0.2032 1.397,-0.2032 0.6604,0 1.2954,0.1778 0.635,0.1524 1.1684,0.508 0.5588,0.3302 0.9652,0.889 0.4318,0.5334 0.6604,1.2954 0.3048,-0.5588 0.6604,-1.0668 0.381,-0.5334 0.8636,-0.9144 0.508,-0.4064 1.143,-0.635 0.6604,-0.254 1.4986,-0.254 0.7366,0 1.4224,0.2032 0.7112,0.2032 1.27,0.635 0.5842,0.4318 0.9906,1.0922 0.4318,0.6604 0.5842,1.6002 0.127,0.6604 0.127,1.397 0.0254,0.7366 0.0254,1.4732 v 3.683 q 0,0.5842 0.1016,0.8636 0.1016,0.254 0.2794,0.381 0.2032,0.2032 0.5842,0.254 0.4064,0.0254 0.8128,0.0254 l 0.1016,0.1016 0.0508,0.3556 -0.0508,0.1016 q -0.4572,-0.0508 -0.9906,-0.0762 -0.508,-0.0254 -1.0414,-0.0254 -0.9398,0 -1.7272,0.0762 l -0.1778,-0.254 q 0.1016,-0.3302 0.1524,-0.8636 0.0508,-0.5334 0.0762,-0.9398 0.0254,-0.381 0.0254,-0.9398 0.0254,-0.5588 0.0254,-1.1176 0.0254,-0.5842 0.0254,-1.0922 0,-0.508 0,-0.7874 0,-0.508 -0.0508,-1.27 -0.0254,-0.7874 -0.1524,-1.3208 -0.254,-1.0414 -1.0414,-1.5748 -0.762,-0.5334 -1.7272,-0.5334 -0.7112,0 -1.3208,0.2794 -0.5842,0.254 -1.0414,0.6604 -0.4572,0.381 -0.7874,0.8636 -0.3048,0.4826 -0.4572,0.9144 0.0508,0.5588 0.0508,1.1176 0.0254,0.5588 0.0254,1.1176 v 3.683 q 0,0.5334 0.1016,0.8128 0.1016,0.254 0.3048,0.4318 0.2032,0.1778 0.5588,0.2286 0.381,0.0508 0.762,0.0508 l 0.127,0.127 0.0508,0.3302 -0.0508,0.1016 q -0.1778,0 -0.5334,-0.0254 -0.3556,-0.0254 -0.762,-0.0508 -0.4064,0 -0.762,-0.0254 -0.3556,0 -0.5334,0 h -0.3556 q -0.1778,0 -0.5588,0 -0.3556,0.0254 -0.762,0.0254 -0.381,0.0254 -0.762,0.0508 -0.3556,0.0254 -0.5334,0.0254 l -0.0508,-0.1016 0.0508,-0.3556 0.1016,-0.1016 q 0.4064,0 0.7874,-0.0254 0.4064,-0.0508 0.6096,-0.254 0.2032,-0.1778 0.254,-0.4572 0.0508,-0.2794 0.1016,-0.7874 0.0254,-0.381 0.0254,-0.9398 0.0254,-0.5588 0.0254,-1.1176 0.0254,-0.5842 0.0254,-1.0922 0.0254,-0.508 0.0254,-0.7874 0,-0.254 0,-0.5842 0,-0.3556 -0.0254,-0.7112 -0.0254,-0.3556 -0.0762,-0.6858 -0.0254,-0.3302 -0.1016,-0.6096 -0.2794,-1.0414 -1.0414,-1.5748 -0.762,-0.5334 -1.7272,-0.5334 -0.8382,0 -1.524,0.381 -0.6858,0.3556 -1.1938,0.889 -0.4826,0.508 -0.762,1.0922 -0.254,0.5588 -0.254,0.9652 v 2.8448 q 0,0.5588 0,0.9144 0.0254,0.3556 0.0254,0.6096 0.0254,0.254 0.0254,0.4826 0.0254,0.2032 0.0508,0.4572 0.0508,0.5334 0.1016,0.8128 0.0762,0.254 0.2794,0.4318 0.2032,0.1778 0.5588,0.2286 0.381,0.0508 0.762,0.0508 l 0.127,0.127 0.0508,0.3302 -0.0508,0.1016 q -0.1778,0 -0.5334,-0.0254 -0.3556,-0.0254 -0.762,-0.0508 -0.4064,0 -0.762,-0.0254 -0.3556,0 -0.5334,0 h -0.3556 q -0.1778,0 -0.5588,0 -0.3556,0.0254 -0.762,0.0254 -0.381,0.0254 -0.762,0.0508 -0.3556,0.0254 -0.5334,0.0254 l -0.0254,-0.1016 0.0254,-0.3556 0.1016,-0.1016 q 0.4064,0 0.7874,-0.0254 0.4064,-0.0508 0.6096,-0.254 0.2032,-0.1778 0.254,-0.4572 0.0762,-0.2794 0.127,-0.7874 0.0254,-0.4064 0.0508,-0.8128 0.0254,-0.4318 0.0254,-1.3462 v -3.1242 q 0,-0.5334 0,-0.889 0,-0.381 -0.0254,-0.6604 0,-0.2794 -0.0254,-0.508 0,-0.2286 -0.0254,-0.4826 -0.0508,-0.2794 -0.1524,-0.4826 -0.1016,-0.2286 -0.1778,-0.3048 -0.254,-0.3048 -0.635,-0.3556 -0.381,-0.0762 -0.7874,-0.0762 l -0.1016,-0.1016 z"
         style="font-size:25.39999962px;stroke-width:0.26458332"
         id="path4596" />
      <path
         d="m 168.34031,294.17639 q 0.0762,-0.2794 0.1016,-0.8382 0.0508,-0.5588 0.127,-1.0414 l -0.0254,-0.0762 q -0.3302,0.4572 -0.7874,0.889 -0.4572,0.4318 -1.016,0.7874 -0.5334,0.3302 -1.1684,0.5334 -0.6096,0.2032 -1.2954,0.2032 -0.7874,0 -1.397,-0.2794 -0.6096,-0.2794 -1.016,-0.7366 -0.4064,-0.4572 -0.6096,-1.0668 -0.2032,-0.6096 -0.2032,-1.27 0,-0.9398 0.4318,-1.6256 0.4318,-0.7112 1.143,-1.1684 0.6604,-0.4064 1.5494,-0.6604 0.9144,-0.254 1.7526,-0.3556 0.8636,-0.127 1.5494,-0.1524 0.6858,-0.0508 0.9144,-0.0508 h 0.3556 q -0.0254,-0.9398 -0.1016,-1.4732 -0.0762,-0.5588 -0.2032,-0.9144 -0.2794,-0.762 -0.9652,-1.0922 -0.6858,-0.3556 -1.651,-0.3556 -0.4064,0 -0.889,0.0762 -0.4572,0.0762 -0.889,0.2794 -0.4064,0.2032 -0.7112,0.5842 -0.3048,0.3556 -0.3556,0.9398 l -0.1016,0.0762 h -0.5588 l -0.2286,-1.8796 0.0762,-0.1524 q 0.127,-0.1524 0.5334,-0.3302 0.4064,-0.1778 0.9398,-0.3302 0.5588,-0.1778 1.2192,-0.2794 0.6858,-0.127 1.3462,-0.127 0.9144,0 1.7018,0.254 0.7874,0.2286 1.3462,0.7112 0.5842,0.4826 0.9144,1.2192 0.3302,0.7112 0.3302,1.6764 0,1.0668 -0.0254,1.905 0,0.8128 -0.0254,1.524 -0.0254,0.6858 -0.0508,1.3716 0,0.6604 0,1.4224 0.0508,0.5842 0.127,0.8636 0.0762,0.254 0.254,0.381 0.2032,0.2032 0.5842,0.254 0.4064,0.0254 0.8128,0.0254 l 0.1016,0.1016 0.0254,0.3556 -0.0254,0.1016 q -0.4572,-0.0508 -0.9906,-0.0762 -0.5334,-0.0254 -1.0414,-0.0254 -0.9652,0 -1.7526,0.0762 z m 0,-2.7432 q 0.0762,-0.127 0.1524,-0.3048 0.1016,-0.1778 0.127,-0.4318 l 0.127,-2.54 h -0.2286 q -1.016,0 -2.032,0.127 -1.016,0.1016 -1.8288,0.4318 -0.7874,0.3302 -1.2954,0.9144 -0.508,0.5842 -0.508,1.4986 0,0.9652 0.5588,1.5494 0.5588,0.5588 1.4478,0.5588 0.5334,0 1.0668,-0.1778 0.5334,-0.1778 0.9906,-0.4572 0.4826,-0.2794 0.8382,-0.5842 0.381,-0.3048 0.5842,-0.5842 z"
         style="font-size:25.39999962px;stroke-width:0.26458332"
         id="path4598" />
    </g>
  </g>
</svg>
